<svg width="24" height="24" viewBox="0 0 24 24" fill="none" xmlns="http://www.w3.org/2000/svg">
<path d="M22 6.66667L10.6667 6.66667M10.6667 6.66667C10.6667 5.19391 9.47276 4 8 4C6.52724 4 5.33333 5.19391 5.33333 6.66667M10.6667 6.66667C10.6667 8.13943 9.47276 9.33333 8 9.33333C6.52724 9.33333 5.33333 8.13943 5.33333 6.66667M5.33333 6.66667L2 6.66667M22 17.3333L18.6667 17.3333M18.6667 17.3333C18.6667 15.8606 17.4728 14.6667 16 14.6667C14.5272 14.6667 13.3333 15.8606 13.3333 17.3333M18.6667 17.3333C18.6667 18.8061 17.4728 20 16 20C14.5272 20 13.3333 18.8061 13.3333 17.3333M13.3333 17.3333H2" stroke="black"/>
</svg>
